<svg width="122" height="122" viewBox="0 0 122 122" fill="none" xmlns="http://www.w3.org/2000/svg">
<g filter="url(#filter0_dd_176_1124)">
<rect x="15.394" y="0.369873" width="96" height="96" rx="32" transform="rotate(3 15.394 0.369873)" fill="#154618"/>
<rect x="15.8672" y="0.895356" width="95" height="95" rx="31.5" transform="rotate(3 15.8672 0.895356)" stroke="#154618" stroke-opacity="0.1"/>
<path d="M44.6736 59.007C44.0165 59.5985 43.6212 60.4267 43.5748 61.3096L43.3853 64.925C43.3371 65.8444 44.0433 66.6287 44.9626 66.6769L49.9564 66.9386C50.8757 66.9867 51.66 66.2805 51.7082 65.3612L51.7954 63.6967C51.8436 62.7773 52.6279 62.0711 53.5472 62.1193L55.2118 62.2066C56.1311 62.2547 56.9154 61.5485 56.9636 60.6292L57.0508 58.9646C57.099 58.0453 57.8833 57.3391 58.8027 57.3873L59.089 57.4023C59.9719 57.4484 60.8369 57.1419 61.4938 56.5502L62.9198 55.2663C67.5972 57.1756 72.9733 55.5988 75.8785 51.4656C78.7837 47.3324 78.4467 41.7399 75.0662 37.9855C71.6857 34.2311 66.159 33.3113 61.7448 35.7685C57.3305 38.2258 55.2005 43.4077 56.6104 48.259L44.6736 59.007Z" fill="#AFEC70"/>
<path d="M44.6736 59.007C44.0165 59.5985 43.6212 60.4267 43.5748 61.3096L43.3853 64.925C43.3371 65.8444 44.0433 66.6287 44.9626 66.6769L49.9564 66.9386C50.8757 66.9867 51.66 66.2805 51.7082 65.3612L51.7954 63.6967C51.8436 62.7773 52.6279 62.0711 53.5472 62.1193L55.2118 62.2066C56.1311 62.2547 56.9154 61.5485 56.9636 60.6292L57.0508 58.9646C57.099 58.0453 57.8833 57.3391 58.8027 57.3873L59.089 57.4023C59.9719 57.4484 60.8369 57.1419 61.4938 56.5502L62.9198 55.2663C67.5972 57.1756 72.9733 55.5988 75.8785 51.4656C78.7837 47.3324 78.4467 41.7399 75.0662 37.9855C71.6857 34.2311 66.159 33.3113 61.7448 35.7685C57.3305 38.2258 55.2005 43.4077 56.6104 48.259L44.6736 59.007" stroke="#AFEC70" stroke-linecap="round" stroke-linejoin="round"/>
<path d="M67.867 43.6746C67.843 44.1339 68.1963 44.5264 68.6557 44.5505C69.115 44.5746 69.5075 44.2212 69.5316 43.7618C69.5557 43.3025 69.2023 42.91 68.7429 42.8859C68.2836 42.8618 67.8911 43.2152 67.867 43.6746Z" fill="#154618"/>
<path d="M67.867 43.6746C67.843 44.1339 68.1963 44.5264 68.6557 44.5505C69.115 44.5746 69.5075 44.2212 69.5316 43.7618C69.5557 43.3025 69.2023 42.91 68.7429 42.8859C68.2836 42.8618 67.8911 43.2152 67.867 43.6746V43.6746" stroke="#154618" stroke-width="3.33372" stroke-linecap="round" stroke-linejoin="round"/>
</g>
<defs>
<filter id="filter0_dd_176_1124" x="-1.63013" y="-1.63013" width="124.893" height="124.893" filterUnits="userSpaceOnUse" color-interpolation-filters="sRGB">
<feFlood flood-opacity="0" result="BackgroundImageFix"/>
<feColorMatrix in="SourceAlpha" type="matrix" values="0 0 0 0 0 0 0 0 0 0 0 0 0 0 0 0 0 0 127 0" result="hardAlpha"/>
<feMorphology radius="4" operator="erode" in="SourceAlpha" result="effect1_dropShadow_176_1124"/>
<feOffset dy="4"/>
<feGaussianBlur stdDeviation="3"/>
<feComposite in2="hardAlpha" operator="out"/>
<feColorMatrix type="matrix" values="0 0 0 0 0.0824378 0 0 0 0 0.274482 0 0 0 0 0.0940869 0 0 0 0.05 0"/>
<feBlend mode="normal" in2="BackgroundImageFix" result="effect1_dropShadow_176_1124"/>
<feColorMatrix in="SourceAlpha" type="matrix" values="0 0 0 0 0 0 0 0 0 0 0 0 0 0 0 0 0 0 127 0" result="hardAlpha"/>
<feMorphology radius="3" operator="erode" in="SourceAlpha" result="effect2_dropShadow_176_1124"/>
<feOffset dy="10"/>
<feGaussianBlur stdDeviation="7.5"/>
<feComposite in2="hardAlpha" operator="out"/>
<feColorMatrix type="matrix" values="0 0 0 0 0.0824378 0 0 0 0 0.274482 0 0 0 0 0.0940869 0 0 0 0.05 0"/>
<feBlend mode="normal" in2="effect1_dropShadow_176_1124" result="effect2_dropShadow_176_1124"/>
<feBlend mode="normal" in="SourceGraphic" in2="effect2_dropShadow_176_1124" result="shape"/>
</filter>
</defs>
</svg>
