<svg width="97" height="95" viewBox="0 0 97 95" fill="none" xmlns="http://www.w3.org/2000/svg">
<g filter="url(#filter0_d_227_2198)">
<rect x="24.4053" y="16.0283" width="57" height="54" rx="11" transform="rotate(8.92411 24.4053 16.0283)" fill="#154618" shape-rendering="crispEdges"/>
<rect x="24.8217" y="16.5998" width="56" height="53" rx="10.5" transform="rotate(8.92411 24.8217 16.5998)" stroke="#EEEEEE" shape-rendering="crispEdges"/>
<path d="M45.355 32.3286C47.5076 32.87 47.5076 32.87 48.2437 33.2017C49.9735 33.9708 51.8298 33.9746 53.6778 33.769C54.3108 33.73 54.8585 33.798 55.4795 33.9184C55.4312 34.1392 55.3829 34.36 55.3331 34.5875C54.9845 36.3349 54.9845 36.3349 55.5503 37.9461C55.9219 38.297 56.3022 38.639 56.6899 38.9721C58.3822 40.5228 58.8534 42.9037 59.2185 45.0831C59.0502 48.014 58.3953 50.5872 56.1986 52.6564C55.8914 52.9129 55.581 53.1656 55.2662 53.4127C55.0782 53.5677 54.8902 53.7228 54.6966 53.8826C51.7305 55.7621 48.7635 56.0744 45.4058 55.3224C43.4258 54.6946 41.7332 53.1531 40.7431 51.3356C39.7007 48.6184 39.7167 46.1038 40.699 43.343C41.816 41.3258 43.8665 39.8702 45.991 39.0768C47.8099 38.5557 49.6073 38.8334 51.2801 39.692C52.9156 40.6968 53.9289 41.9116 54.5476 43.7394C54.9118 45.3202 54.7387 47.0859 54.0011 48.5403C53.6866 48.9905 53.3569 49.3957 52.9857 49.7999C52.8509 49.9634 52.7162 50.1268 52.5774 50.2952C50.8865 51.4585 49.0856 51.7032 47.106 51.3772C46.656 51.247 46.656 51.247 46.2058 50.7949C45.8083 49.9484 45.9019 49.3446 46.038 48.4428C46.0594 48.2992 46.0808 48.1555 46.1028 48.0076C46.1486 47.7037 46.1949 47.4 46.2418 47.0963C46.3129 46.6315 46.3796 46.1662 46.4463 45.7008C46.4913 45.4058 46.5365 45.1108 46.5821 44.8159C46.6014 44.6765 46.6208 44.5372 46.6408 44.3936C46.7333 43.8212 46.7992 43.4329 47.2058 43.006C47.7891 42.7499 48.1589 42.8515 48.7594 43.0339C49.237 43.444 49.237 43.444 49.6273 43.9838C49.6514 44.5655 49.6514 44.5655 49.5347 45.2056C49.4954 45.4355 49.456 45.6653 49.4154 45.902C49.3465 46.2594 49.3465 46.2594 49.2763 46.6239C49.2337 46.8658 49.1911 47.1077 49.1473 47.3569C49.0415 47.954 48.9312 48.5499 48.8168 49.1453C49.9823 48.8216 50.7768 48.5741 51.5317 47.5931C52.0523 46.6713 52.2199 45.7347 51.9642 44.702C51.4847 43.48 50.768 42.4784 49.542 41.9363C48.2051 41.5671 47.0917 41.5217 45.8439 42.1692C44.4159 43.0848 43.4318 44.2993 42.9388 45.9299C42.6059 47.5763 42.8512 49.0697 43.6513 50.5463C44.5453 51.8278 45.6045 52.3346 47.1102 52.6241C49.3017 52.986 50.9675 52.758 52.9036 51.6178C54.7155 50.2841 55.6834 48.6123 56.0614 46.4053C56.3853 44.1183 55.8107 42.3294 54.4508 40.4695C53.8973 39.8896 53.3127 39.4198 52.6526 38.9667C52.5296 38.8784 52.4066 38.7901 52.2799 38.6992C50.4711 37.5841 48.0657 37.377 46.0302 37.8251C45.8113 37.8851 45.5924 37.9451 45.3668 38.007C44.848 38.148 44.848 38.148 44.451 38.0856C44.7493 36.1858 45.0477 34.286 45.355 32.3286Z" fill="#AFEC70"/>
<path d="M41.5042 33.1304C41.5264 33.2627 41.5693 33.3847 41.6162 33.5068C41.5851 33.7655 41.5475 34.025 41.5029 34.2848L41.5027 34.2857C41.4816 34.4113 41.4607 34.5374 41.4392 34.6652L41.2212 34.631C41.2436 34.4755 41.2657 34.3198 41.2885 34.1641L41.2888 34.1622L41.3665 33.6238C41.4131 33.3883 41.4304 33.3112 41.4613 33.2274C41.4723 33.1978 41.4872 33.1677 41.5042 33.1304ZM49.2375 28.0754C51.1228 28.0398 52.765 28.5583 54.5533 29.3184L54.557 29.32C54.7699 29.4081 54.9828 29.4967 55.2021 29.5874C55.8453 29.8543 56.4874 30.1251 57.1301 30.3972L57.132 30.3975C57.5218 30.5612 57.9116 30.725 58.3014 30.8886C59.0638 31.2095 59.8249 31.5343 60.5856 31.8602L60.5457 32.1139C59.1881 32.3481 57.8354 32.4687 56.4349 32.5577L56.434 32.5576C55.9792 32.5875 55.5243 32.6174 55.0695 32.6478C54.8451 32.6618 54.6208 32.6758 54.3896 32.6903L54.3826 32.6912C54.162 32.7082 53.9412 32.7278 53.7208 32.7504L53.0614 32.8267C50.5322 33.1466 48.3799 32.241 45.93 31.2156L45.9273 31.2142C45.6672 31.1072 45.4065 31.0005 45.1463 30.8939L45.1472 30.894C43.3135 30.1392 43.3321 30.146 42.6583 29.7974L42.2232 29.5719L42.2625 29.3022L41.1685 29.1305C41.1617 29.0307 41.1593 28.9473 41.1604 28.8109C41.2972 28.7321 41.4075 28.6938 41.5176 28.6702C41.7077 28.6296 41.9059 28.6266 42.2888 28.6065L42.2908 28.6058C42.5215 28.5927 42.7525 28.5789 42.9901 28.5654L42.991 28.5665C43.2387 28.5538 43.4871 28.5413 43.7423 28.5283L43.7444 28.5276C45.5751 28.4267 47.403 28.3036 49.2375 28.0754Z" fill="#AFEC70" stroke="black"/>
<path d="M45.4775 31.5494C47.6301 32.0908 47.6301 32.0908 48.3662 32.4225C50.096 33.1916 51.9524 33.1954 53.8003 32.9898C54.4109 32.9522 54.4109 32.9522 55.602 33.1392C55.2728 35.2356 54.9437 37.3319 54.6045 39.4918C53.8146 38.965 53.0246 38.4382 52.2108 37.8955C51.2614 37.4042 50.5233 37.1385 49.4951 36.9732C49.2751 36.9375 49.2751 36.9375 49.0507 36.901C47.7699 36.7269 46.7391 36.8851 45.4893 37.2278C44.9706 37.3688 44.9706 37.3688 44.5735 37.3064C44.8718 35.4066 45.1702 33.5068 45.4775 31.5494Z" fill="#AFEC70"/>
<path d="M45.1592 34.8462C45.0106 36.4339 45.0106 36.4339 44.859 38.0537C44.3213 38.2714 44.3213 38.2714 43.7728 38.4934C43.456 38.7014 43.1459 38.9199 42.8436 39.1484C42.6935 39.261 42.5434 39.3735 42.3888 39.4894C42.077 39.725 41.769 39.9657 41.4643 40.2103C41.0165 40.5016 41.0165 40.5016 40.2937 40.4898C39.6269 40.2834 39.6269 40.2834 39.2786 39.9108C39.0956 39.1417 39.2393 38.7525 39.5728 38.0373C40.5326 36.9147 43.6218 34.6048 45.1592 34.8462Z" fill="#AFEC70"/>
<path d="M38.8578 64.4537L37.8501 64.2954C37.9989 64.3795 38.2413 64.6403 38.2395 64.9741C38.2501 65.745 37.275 67.829 34.667 67.4195C31.5057 66.9231 31.5746 63.5833 33.1001 61.2821L33.2045 61.1973L33.5008 61.2438C32.6873 62.4927 31.8893 64.3514 35.1888 64.8696C37.0263 65.1581 37.9443 65.0492 37.9784 64.8319C38.0281 64.5157 36.9221 64.2105 35.6965 63.9573L36.951 61.5123L38.413 61.7419L39.2626 61.8753L38.8578 64.4537ZM34.0298 67.6737L34.5887 68.3688L35.2844 67.8707L36.0365 68.8189L35.2332 69.4216L34.6774 68.7067L33.9786 69.2245L33.2297 68.2567L34.0298 67.6737ZM39.2942 61.8802C39.6103 61.9299 40.4646 62.0336 40.7604 62.0194L40.8095 61.1262L40.9025 61.0497L40.9717 61.0605C41.0194 61.5944 41.2107 62.1812 41.9813 62.3022L42.0208 62.3084L41.6159 64.8868C40.7642 64.7024 40.6972 63.5177 40.7374 62.5522L40.2472 64.4492C39.99 64.5404 39.2351 64.5129 38.8597 64.454L38.8498 64.4524L39.2547 61.874L39.2942 61.8802ZM40.1248 58.5892L40.6837 59.2844L41.3794 58.7862L42.1314 59.7344L41.3282 60.3371L40.7724 59.6222L40.0736 60.1401L39.3247 59.1722L40.1248 58.5892ZM44.8377 62.4369C45.0292 62.6998 45.7167 62.8989 47.2001 63.1217L46.7952 65.7001C44.8293 65.3914 44.2826 64.4249 44.2967 63.3035C43.6052 64.4197 42.6954 65.0563 41.6186 64.8872L42.0235 62.3088C42.8632 62.4407 43.9431 62.59 44.2252 62.3407C44.3012 61.8567 43.9311 61.3127 43.0529 61.1039L43.1056 60.768C43.6272 60.283 44.3335 60.0397 44.8768 60.125C45.5091 60.2243 46.05 60.5825 45.9399 61.2839C45.8484 61.8668 44.8522 62.4088 44.8377 62.4369ZM49.0933 63.0849C49.3598 63.4507 50.218 63.9802 50.9564 64.1771C51.083 63.8225 51.047 63.1488 50.4646 62.9257C50.0075 62.7426 49.4399 62.8761 49.0933 63.0849ZM49.7331 66.6169C48.8094 66.1176 48.3184 65.8279 47.8772 65.4145C47.6081 65.6455 47.2739 65.7752 46.7602 65.6946L47.1849 63.1193C49.4373 63.473 49.0683 61.8258 50.5304 62.0554C51.9036 62.271 51.2774 64.3895 51.1752 64.7176L49.9406 66.6495L49.7331 66.6169ZM53.8135 64.1601L53.4086 66.7386L53.2604 66.7153C52.3312 66.5086 52.2218 65.0136 52.4639 62.9562L52.7933 60.2141L53.1312 59.6092L53.4078 59.6526L52.8949 62.9834C52.7398 63.9713 53.0726 64.0438 53.8135 64.1601ZM53.8324 64.1631C56.1342 64.5246 57.8364 64.063 57.947 63.9387C57.3411 63.6715 56.0215 62.8569 55.1324 62.7173C54.8459 62.6723 54.5743 62.9839 54.4896 63.0719L54.3372 62.9467C54.5371 62.7048 55.3683 61.9243 55.6449 61.9677C56.3167 62.0732 58.332 63.6145 59.389 63.7805L59.3673 63.9188L58.9564 64.2794C56.8818 63.9536 56.2134 67.179 53.4077 66.7384L53.8126 64.16L53.8324 64.1631ZM55.7224 66.8893L56.4827 67.8489L55.6696 68.45L54.9108 67.4806L55.7224 66.8893Z" fill="#F6FEEB"/>
</g>
<defs>
<filter id="filter0_d_227_2198" x="-1.57168" y="-1.57168" width="99.887" height="97.3885" filterUnits="userSpaceOnUse" color-interpolation-filters="sRGB">
<feFlood flood-opacity="0" result="BackgroundImageFix"/>
<feColorMatrix in="SourceAlpha" type="matrix" values="0 0 0 0 0 0 0 0 0 0 0 0 0 0 0 0 0 0 127 0" result="hardAlpha"/>
<feOffset/>
<feGaussianBlur stdDeviation="8.8"/>
<feComposite in2="hardAlpha" operator="out"/>
<feColorMatrix type="matrix" values="0 0 0 0 0 0 0 0 0 0 0 0 0 0 0 0 0 0 0.25 0"/>
<feBlend mode="normal" in2="BackgroundImageFix" result="effect1_dropShadow_227_2198"/>
<feBlend mode="normal" in="SourceGraphic" in2="effect1_dropShadow_227_2198" result="shape"/>
</filter>
</defs>
</svg>
