<svg width="536" height="694" viewBox="0 0 536 694" fill="none" xmlns="http://www.w3.org/2000/svg">
<path d="M139.356 177.92C141.894 218.542 141.894 218.542 144.485 259.985C131.79 267.601 131.79 267.601 118.839 275.372C111.675 281.87 104.721 288.609 98.0028 295.567C94.664 298.999 91.3251 302.43 87.8851 305.966C80.9573 313.141 74.1436 320.428 67.4291 327.804C57.2913 336.92 57.2913 336.92 39.0191 339.485C21.3881 336.92 21.3881 336.92 11.1301 328.906C3.47079 310.236 5.55337 299.855 11.1301 280.501C30.8873 248.395 99.6355 177.92 139.356 177.92Z" fill="#B5E962"/>
<path d="M133.355 113.114C189.775 118.243 189.775 118.243 209.65 123.692C256.311 136.237 303.133 128.981 348.914 116.479C364.722 112.99 378.801 112.537 394.935 113.114C394.592 118.872 394.248 124.631 393.894 130.564C392.021 176.006 392.021 176.006 412.667 214.392C423.427 221.768 434.37 228.885 445.464 235.749C494.275 268.149 515.584 326.317 533.419 379.823C540.778 454.392 534.455 521.866 487.258 582.739C480.527 590.422 473.702 598.024 466.742 605.499C462.616 610.154 458.49 614.809 454.24 619.604C386.892 678.739 313.318 698.362 225.678 692.693C173.266 684.702 124.484 652.537 92.3233 610.628C55.2817 546.245 45.7292 482.775 59.5656 409.274C79.7426 353.988 125.684 309.166 176.111 280.748C219.91 260.408 266.331 260.295 311.909 275.319C357.126 294.181 387.487 320.8 410.322 364.436C425.764 402.853 428.391 448.061 415.552 487.652C409.404 500.251 402.695 511.773 394.935 523.435C392.185 528.09 389.435 532.744 386.601 537.54C348.573 573.566 304.132 586.867 252.926 586.486C241.065 584.983 241.065 584.983 227.922 575.366C214.548 555.597 214.519 540.002 214.378 516.723C214.349 513.018 214.319 509.312 214.289 505.494C214.241 497.651 214.207 489.809 214.188 481.966C214.138 469.965 213.979 457.969 213.817 445.969C213.783 438.352 213.756 430.735 213.737 423.119C213.673 419.528 213.61 415.937 213.545 412.238C213.613 397.44 213.735 387.386 222.297 375.013C235.992 366.245 245.718 367.344 261.581 369.565C275.249 378.014 275.249 378.014 287.226 390.081C290.137 404.651 290.137 404.651 289.73 421.255C289.648 427.206 289.565 433.156 289.48 439.287C289.158 448.57 289.158 448.57 288.829 458.04C288.713 464.308 288.597 470.576 288.478 477.034C288.176 492.507 287.754 507.968 287.226 523.435C315.332 510.659 334.385 501.272 349.536 473.547C359.014 448.243 359.53 423.964 348.995 398.936C332.065 370.022 310.029 347.607 276.968 338.79C241.798 334.775 213.543 338.039 184.646 359.307C152.264 388.046 132.26 422.565 126.283 465.634C124.41 508.465 136.506 545.148 162.527 579.213C190.143 607.986 218.856 616.571 257.968 617.91C314.66 618.356 355.76 606.012 400.064 569.596C440.468 528.795 458.255 482.809 459.048 425.663C458.16 366.713 436.59 323.882 394.935 282.371C378.684 269.941 362.083 260.409 343.645 251.597C340.194 249.858 336.743 248.119 333.187 246.328C283.165 225.373 221.693 229.675 172.144 249.033C166.861 251.413 161.578 253.793 156.135 256.245C143.613 261.855 143.613 261.855 133.355 261.855C133.355 212.77 133.355 163.686 133.355 113.114Z" fill="#AFEC70"/>
<path d="M356.467 14.4148C362.188 15.7942 367.91 17.1735 373.805 18.5947C391.125 22.7908 408.418 27.086 425.709 31.4047C436.193 33.9908 446.678 36.5755 457.164 39.1583C480.896 45.0318 504.6 51.0072 528.289 57.0498C528.289 65.5127 528.289 73.9756 528.289 82.6949C491.483 95.754 454.509 104.978 416.412 113.469C405.051 116.028 393.691 118.592 382.332 121.163C376.728 122.406 371.124 123.649 365.35 124.929C354.557 127.486 343.823 130.306 333.178 133.424C266.875 152.601 205.677 137.18 140.407 121.163C133.429 119.495 126.45 117.832 119.47 116.174C70.2573 104.404 70.2573 104.404 51.2902 98.0819C51.1521 109.836 51.0524 121.59 50.9696 133.344C50.9101 139.889 50.8506 146.435 50.7893 153.179C50.1015 169.307 50.1015 169.307 56.4192 180.146C56.7757 188.046 56.8527 195.961 56.7398 203.868C56.6935 208.06 56.6472 212.252 56.5995 216.57C56.54 219.784 56.4805 222.997 56.4192 226.307C46.2638 226.307 36.1083 226.307 25.6451 226.307C25.5062 218.08 25.4069 209.852 25.3245 201.624C25.265 197.042 25.2055 192.46 25.1442 187.74C25.6451 175.017 25.6451 175.017 30.7741 159.63C31.1316 147.347 31.2074 135.054 31.0947 122.765C31.0484 116.24 31.0021 109.714 30.9544 102.991C30.8949 97.9856 30.8354 92.9806 30.7741 87.8239C22.3112 87.8239 13.8484 87.8239 5.12902 87.8239C1.92338 75.6425 1.92338 75.6425 0 62.1788C12.8067 49.3721 21.0389 48.6361 38.668 44.9084C44.466 43.6564 50.264 42.4043 56.2377 41.1143C62.4332 39.8143 68.6287 38.5142 75.0119 37.1748C120.989 27.3362 166.525 17.0377 211.712 4.03657C261.904 -4.91676 307.535 2.12049 356.467 14.4148Z" fill="#0E3421"/>
<path d="M133.356 118.114C189.776 123.243 189.776 123.243 209.651 128.692C256.312 141.237 303.134 133.981 348.916 121.48C364.162 118.114 364.162 118.114 394.936 118.114C394.936 172.276 394.936 226.439 394.936 282.242C372.933 272.087 350.929 261.931 328.259 251.468C302.376 242.841 282.714 239.063 256.132 238.966C250.444 238.937 250.444 238.937 244.641 238.906C211.657 239.588 186.294 247.658 156.137 261.245C143.614 266.855 143.614 266.855 133.356 266.855C133.356 217.771 133.356 168.686 133.356 118.114Z" fill="#11461D"/>
</svg>
