<svg width="72" height="72" viewBox="0 0 72 72" fill="none" xmlns="http://www.w3.org/2000/svg">
<g filter="url(#filter0_dd_189_1563)">
<rect x="5.53442" y="1.18494" width="64" height="64" rx="16" transform="rotate(3 5.53442 1.18494)" fill="white"/>
<rect x="6.00757" y="1.71042" width="63" height="63" rx="15.5" transform="rotate(3 6.00757 1.71042)" stroke="#154618" stroke-opacity="0.1"/>
<path d="M46.3995 36.7058C46.0505 43.3642 41.2152 46.4491 35.5742 48.0897C35.279 48.1728 34.9641 48.1516 34.6827 48.0297C29.2301 45.821 24.7437 42.2476 25.0926 35.5892L25.5812 26.2674C25.6197 25.5325 26.2477 24.967 26.9826 25.0055C29.646 25.1451 33.0589 23.7216 35.4821 21.8189C36.0911 21.3515 36.9495 21.3965 37.5063 21.925C39.7299 24.0846 42.9628 25.843 45.6261 25.9826C46.3611 26.0211 46.9265 26.6491 46.888 27.3841L46.3995 36.7058" stroke="#154618" stroke-width="2.66701" stroke-linecap="round" stroke-linejoin="round"/>
<path d="M31.8206 34.6065L34.3444 37.4094L39.9503 32.3619" stroke="#154618" stroke-width="2.66701" stroke-linecap="round" stroke-linejoin="round"/>
</g>
<defs>
<filter id="filter0_dd_189_1563" x="-0.815186" y="-0.815063" width="73.262" height="73.2618" filterUnits="userSpaceOnUse" color-interpolation-filters="sRGB">
<feFlood flood-opacity="0" result="BackgroundImageFix"/>
<feColorMatrix in="SourceAlpha" type="matrix" values="0 0 0 0 0 0 0 0 0 0 0 0 0 0 0 0 0 0 127 0" result="hardAlpha"/>
<feMorphology radius="1" operator="erode" in="SourceAlpha" result="effect1_dropShadow_189_1563"/>
<feOffset dy="1"/>
<feGaussianBlur stdDeviation="1"/>
<feComposite in2="hardAlpha" operator="out"/>
<feColorMatrix type="matrix" values="0 0 0 0 0 0 0 0 0 0 0 0 0 0 0 0 0 0 0.1 0"/>
<feBlend mode="normal" in2="BackgroundImageFix" result="effect1_dropShadow_189_1563"/>
<feColorMatrix in="SourceAlpha" type="matrix" values="0 0 0 0 0 0 0 0 0 0 0 0 0 0 0 0 0 0 127 0" result="hardAlpha"/>
<feOffset dy="1"/>
<feGaussianBlur stdDeviation="1.5"/>
<feComposite in2="hardAlpha" operator="out"/>
<feColorMatrix type="matrix" values="0 0 0 0 0 0 0 0 0 0 0 0 0 0 0 0 0 0 0.1 0"/>
<feBlend mode="normal" in2="effect1_dropShadow_189_1563" result="effect2_dropShadow_189_1563"/>
<feBlend mode="normal" in="SourceGraphic" in2="effect2_dropShadow_189_1563" result="shape"/>
</filter>
</defs>
</svg>
