<svg width="383" height="393" viewBox="0 0 383 393" fill="none" xmlns="http://www.w3.org/2000/svg">
<g filter="url(#filter0_d_291_1105)">
<rect x="100" y="100" width="183" height="193" rx="36" fill="#154618" shape-rendering="crispEdges"/>
<path d="M170.61 139.414C178.483 140.13 178.483 140.13 181.257 140.89C187.769 142.641 194.303 141.628 200.692 139.884C202.898 139.397 204.863 139.333 207.114 139.414C207.066 140.217 207.018 141.021 206.969 141.849C206.708 148.191 206.708 148.191 209.589 153.548C211.09 154.577 212.618 155.57 214.166 156.528C220.978 161.05 223.951 169.167 226.44 176.634C227.467 187.04 226.585 196.457 219.998 204.952C219.059 206.024 218.106 207.085 217.135 208.128C216.559 208.778 215.984 209.427 215.39 210.096C205.992 218.349 195.724 221.087 183.494 220.296C176.18 219.181 169.372 214.692 164.884 208.844C159.714 199.859 158.381 191.001 160.312 180.744C163.128 173.029 169.539 166.774 176.576 162.808C182.689 159.969 189.167 159.953 195.528 162.05C201.838 164.682 206.075 168.397 209.262 174.487C211.417 179.848 211.783 186.157 209.991 191.682C209.133 193.44 208.197 195.048 207.114 196.676C206.73 197.325 206.347 197.975 205.951 198.644C200.644 203.672 194.442 205.528 187.296 205.475C185.641 205.265 185.641 205.265 183.807 203.923C181.941 201.164 181.936 198.988 181.917 195.739C181.913 195.222 181.909 194.705 181.904 194.172C181.898 193.077 181.893 191.983 181.89 190.889C181.883 189.214 181.861 187.54 181.839 185.865C181.834 184.802 181.83 183.739 181.827 182.676C181.819 182.175 181.81 181.674 181.801 181.158C181.81 179.093 181.827 177.69 183.022 175.963C184.933 174.739 186.29 174.893 188.504 175.203C190.412 176.382 190.412 176.382 192.083 178.066C192.489 180.099 192.489 180.099 192.433 182.416C192.421 183.247 192.409 184.077 192.398 184.933C192.353 186.228 192.353 186.228 192.307 187.55C192.291 188.424 192.274 189.299 192.258 190.2C192.216 192.36 192.157 194.517 192.083 196.676C196.005 194.893 198.664 193.583 200.779 189.714C202.101 186.182 202.173 182.794 200.703 179.301C198.341 175.266 195.265 172.138 190.651 170.908C185.743 170.347 181.8 170.803 177.768 173.771C173.249 177.782 170.457 182.599 169.623 188.609C169.361 194.587 171.05 199.706 174.681 204.46C178.535 208.475 182.542 209.673 188 209.86C195.912 209.922 201.647 208.2 207.83 203.118C213.469 197.424 215.951 191.006 216.061 183.031C215.938 174.805 212.927 168.827 207.114 163.034C204.846 161.3 202.53 159.969 199.957 158.74C199.475 158.497 198.993 158.254 198.497 158.004C191.516 155.08 182.938 155.68 176.023 158.382C175.286 158.714 174.548 159.046 173.789 159.388C172.041 160.171 172.041 160.171 170.61 160.171C170.61 153.321 170.61 146.471 170.61 139.414Z" fill="#AFEC70"/>
<path d="M181.656 120.051C188.549 118.826 194.83 119.789 201.624 121.496V121.497L201.629 121.498C202.427 121.69 203.225 121.883 204.048 122.081C206.463 122.666 208.875 123.266 211.288 123.868H211.289C212.752 124.229 214.216 124.59 215.679 124.95C218.864 125.738 222.045 126.54 225.225 127.351V130.185C220.226 131.935 215.198 133.189 210.003 134.347L210.002 134.348C208.416 134.705 206.83 135.062 205.245 135.421C204.464 135.594 203.683 135.768 202.878 135.946L202.871 135.948C201.357 136.307 199.85 136.702 198.355 137.14C189.252 139.772 180.844 137.663 171.714 135.423H171.711C170.737 135.19 169.761 134.957 168.787 134.726C161.92 133.083 161.939 133.087 159.315 132.213L158.666 131.997L158.658 132.682C158.639 134.323 158.625 135.964 158.613 137.604C158.605 138.512 158.596 139.42 158.588 140.355C158.541 141.45 158.511 142.091 158.625 142.638C158.737 143.175 158.987 143.612 159.378 144.282C159.423 145.333 159.433 146.388 159.418 147.443V147.445C159.412 148.029 159.405 148.613 159.398 149.214C159.393 149.502 159.388 149.79 159.383 150.082H156.072C156.057 149.099 156.044 148.116 156.034 147.133V147.131L156.009 145.22C156.044 144.32 156.061 143.919 156.149 143.476C156.24 143.023 156.406 142.522 156.769 141.436L156.792 141.365L156.794 141.292C156.832 140.001 156.847 138.709 156.846 137.418L156.84 136.128C156.833 135.218 156.826 134.307 156.819 133.369V133.367L156.795 131.25L156.789 130.756H153.103C152.775 129.508 152.742 129.335 152.531 127.859C153.303 127.119 153.936 126.729 154.625 126.464C155.395 126.168 156.24 126.022 157.5 125.756H157.502C158.311 125.581 159.12 125.406 159.953 125.226C160.817 125.044 161.681 124.863 162.571 124.677H162.573C168.983 123.305 175.342 121.866 181.656 120.051Z" fill="#AFEC70" stroke="black"/>
<path d="M170.61 136.604C178.484 137.32 178.484 137.32 181.257 138.081C187.769 139.831 194.303 138.819 200.692 137.074C202.82 136.604 202.82 136.604 207.115 136.604C207.115 144.163 207.115 151.722 207.115 159.509C204.044 158.092 200.973 156.675 197.81 155.215C194.198 154.011 191.454 153.483 187.744 153.47C186.95 153.466 186.95 153.466 186.141 153.461C181.538 153.557 177.998 154.683 173.789 156.579C172.042 157.362 172.042 157.362 170.61 157.362C170.61 150.512 170.61 143.662 170.61 136.604Z" fill="#AFEC70"/>
<path d="M171.312 148.381C171.667 154.05 171.667 154.05 172.028 159.834C170.257 160.897 170.257 160.897 168.449 161.981C167.449 162.888 166.479 163.828 165.542 164.799C165.076 165.278 164.61 165.757 164.13 166.25C163.163 167.252 162.212 168.269 161.275 169.298C159.86 170.57 159.86 170.57 157.31 170.928C154.85 170.57 154.85 170.57 153.418 169.452C152.349 166.846 152.64 165.398 153.418 162.697C156.175 158.216 165.769 148.381 171.312 148.381Z" fill="#AFEC70"/>
<path d="M162.557 258.427H158.477C159.117 258.667 160.237 259.547 160.437 260.867C160.957 263.907 158.397 272.747 147.837 272.747C135.037 272.747 133.237 259.507 137.837 249.467L138.197 249.067H139.397C136.957 254.507 134.957 262.347 148.317 262.347C155.757 262.347 159.317 261.347 159.317 260.467C159.317 259.187 154.757 258.667 149.757 258.427L153.197 247.987H159.117H162.557V258.427ZM145.477 274.147L148.117 276.547L150.557 274.147L154.117 277.427L151.317 280.307L148.677 277.827L146.237 280.307L142.677 276.947L145.477 274.147ZM162.685 247.987C163.965 247.987 167.405 247.867 168.565 247.627L168.205 244.067L168.525 243.707H168.805C169.325 245.787 170.445 247.987 173.565 247.987H173.725V258.427C170.245 258.227 169.245 253.587 168.805 249.747L168.045 257.547C167.085 258.067 164.085 258.427 162.565 258.427H162.525V247.987H162.685ZM163.925 234.467L166.565 236.867L169.005 234.467L172.565 237.747L169.765 240.627L167.125 238.147L164.685 240.627L161.125 237.267L163.925 234.467ZM184.936 246.747C185.856 247.667 188.696 248.027 194.696 247.987V258.427C186.736 258.427 183.976 254.947 183.336 250.507C181.296 255.347 178.096 258.427 173.736 258.427V247.987C177.136 247.987 181.496 247.907 182.456 246.747C182.456 244.787 180.656 242.867 177.056 242.587V241.227C178.816 238.987 181.456 237.587 183.656 237.587C186.216 237.587 188.576 238.667 188.576 241.507C188.576 243.867 184.976 246.627 184.936 246.747ZM202.155 246.667C203.435 247.947 207.155 249.507 210.195 249.827C210.475 248.347 209.915 245.707 207.475 245.187C205.555 244.747 203.395 245.627 202.155 246.667ZM206.875 260.227C202.915 258.827 200.795 257.987 198.795 256.627C197.875 257.707 196.635 258.427 194.555 258.427L194.635 247.987C203.755 247.987 201.275 241.707 207.195 241.707C212.755 241.707 211.595 250.467 211.395 251.827L207.715 260.227H206.875ZM221.474 247.987V258.427H220.874C217.074 258.187 215.714 252.347 215.394 244.067L214.994 233.027L215.954 230.427H217.074L217.114 243.907C217.114 247.907 218.474 247.987 221.474 247.987ZM221.551 247.987C230.871 247.987 237.311 245.107 237.671 244.547C235.111 243.867 229.391 241.467 225.791 241.467C224.631 241.467 223.751 242.867 223.471 243.267L222.791 242.867C223.431 241.787 226.231 238.187 227.351 238.187C230.071 238.187 238.991 243.027 243.271 243.027V243.587L241.871 245.267C233.471 245.267 232.831 258.427 221.471 258.427V247.987H221.551ZM230.711 257.587L234.311 260.907L231.471 263.787L227.871 260.427L230.711 257.587Z" fill="#F6FEEB"/>
</g>
<defs>
<filter id="filter0_d_291_1105" x="0" y="0" width="383" height="393" filterUnits="userSpaceOnUse" color-interpolation-filters="sRGB">
<feFlood flood-opacity="0" result="BackgroundImageFix"/>
<feColorMatrix in="SourceAlpha" type="matrix" values="0 0 0 0 0 0 0 0 0 0 0 0 0 0 0 0 0 0 127 0" result="hardAlpha"/>
<feOffset/>
<feGaussianBlur stdDeviation="50"/>
<feComposite in2="hardAlpha" operator="out"/>
<feColorMatrix type="matrix" values="0 0 0 0 0.686275 0 0 0 0 0.92549 0 0 0 0 0.439216 0 0 0 1 0"/>
<feBlend mode="normal" in2="BackgroundImageFix" result="effect1_dropShadow_291_1105"/>
<feBlend mode="normal" in="SourceGraphic" in2="effect1_dropShadow_291_1105" result="shape"/>
</filter>
</defs>
</svg>
