<svg width="111" height="50" viewBox="0 0 111 50" fill="none" xmlns="http://www.w3.org/2000/svg">
<path d="M29.3201 28H25.2401C25.8801 28.24 27.0001 29.12 27.2001 30.44C27.7201 33.48 25.1601 42.32 14.6001 42.32C1.80009 42.32 9.02712e-05 29.08 4.60009 19.04L4.96009 18.64H6.16009C3.72009 24.08 1.72009 31.92 15.0801 31.92C22.5201 31.92 26.0801 30.92 26.0801 30.04C26.0801 28.76 21.5201 28.24 16.5201 28L19.9601 17.56H25.8801H29.3201V28ZM12.2401 43.72L14.8801 46.12L17.3201 43.72L20.8801 47L18.0801 49.88L15.4401 47.4L13.0001 49.88L9.44009 46.52L12.2401 43.72ZM29.4479 17.56C30.7279 17.56 34.1679 17.44 35.3279 17.2L34.9679 13.64L35.2879 13.28H35.5679C36.0879 15.36 37.2079 17.56 40.3279 17.56H40.4879V28C37.0079 27.8 36.0079 23.16 35.5679 19.32L34.8079 27.12C33.8479 27.64 30.8479 28 29.3279 28H29.2879V17.56H29.4479ZM30.6879 4.04L33.3279 6.44L35.7679 4.04L39.3279 7.32L36.5279 10.2L33.8879 7.72L31.4479 10.2L27.8879 6.84L30.6879 4.04ZM51.6988 16.32C52.6188 17.24 55.4588 17.6 61.4588 17.56V28C53.4988 28 50.7388 24.52 50.0988 20.08C48.0588 24.92 44.8588 28 40.4988 28V17.56C43.8988 17.56 48.2588 17.48 49.2188 16.32C49.2188 14.36 47.4188 12.44 43.8188 12.16V10.8C45.5788 8.56 48.2188 7.16 50.4188 7.16C52.9788 7.16 55.3388 8.24 55.3388 11.08C55.3388 13.44 51.7388 16.2 51.6988 16.32ZM68.9173 16.24C70.1973 17.52 73.9173 19.08 76.9573 19.4C77.2373 17.92 76.6773 15.28 74.2373 14.76C72.3173 14.32 70.1573 15.2 68.9173 16.24ZM73.6373 29.8C69.6773 28.4 67.5573 27.56 65.5573 26.2C64.6373 27.28 63.3973 28 61.3173 28L61.3973 17.56C70.5173 17.56 68.0373 11.28 73.9573 11.28C79.5173 11.28 78.3573 20.04 78.1573 21.4L74.4773 29.8H73.6373ZM88.2367 17.56V28H87.6367C83.8367 27.76 82.4767 21.92 82.1567 13.64L81.7567 2.6L82.7167 -1.90735e-06H83.8367L83.8767 13.48C83.8767 17.48 85.2367 17.56 88.2367 17.56ZM88.3132 17.56C97.6332 17.56 104.073 14.68 104.433 14.12C101.873 13.44 96.1532 11.04 92.5532 11.04C91.3932 11.04 90.5132 12.44 90.2332 12.84L89.5532 12.44C90.1932 11.36 92.9932 7.76 94.1132 7.76C96.8332 7.76 105.753 12.6 110.033 12.6V13.16L108.633 14.84C100.233 14.84 99.5932 28 88.2332 28V17.56H88.3132ZM97.4732 27.16L101.073 30.48L98.2332 33.36L94.6332 30L97.4732 27.16Z" fill="#F6FEEB"/>
</svg>
