<svg width="31" height="31" viewBox="0 0 31 31" fill="none" xmlns="http://www.w3.org/2000/svg">
<path d="M24.1673 25.1875C23.0952 26.7892 21.9585 28.3521 20.2277 28.3779C18.4968 28.4167 17.9414 27.3575 15.9781 27.3575C14.0018 27.3575 13.3948 28.3521 11.7543 28.4167C10.0623 28.4813 8.7835 26.7117 7.6985 25.1488C5.48975 21.9583 3.79767 16.0813 6.071 12.1288C7.19475 10.1654 9.20975 8.92542 11.3927 8.88667C13.046 8.86084 14.6218 10.0104 15.6423 10.0104C16.6498 10.0104 18.5614 8.62834 20.5635 8.835C21.4031 8.87375 23.7539 9.17084 25.2652 11.3925C25.1489 11.47 22.4623 13.0458 22.4881 16.3138C22.5268 20.2146 25.911 21.5192 25.9498 21.5321C25.911 21.6225 25.4073 23.3921 24.1673 25.1875ZM16.7918 4.52084C17.7348 3.44875 19.2977 2.635 20.5893 2.58334C20.7573 4.09459 20.1502 5.61875 19.246 6.70375C18.3548 7.80167 16.8823 8.65417 15.4356 8.53792C15.2418 7.0525 15.9652 5.5025 16.7918 4.52084Z" fill="#D9D9D9"/>
</svg>
