<svg width="16" height="16" viewBox="0 0 16 16" fill="none" xmlns="http://www.w3.org/2000/svg">
<path d="M2.5668 5.74706C2.36903 4.85622 2.64051 3.92611 3.28644 3.28154C3.93237 2.63696 4.86304 2.36743 5.75346 2.56706C6.24351 1.80064 7.09044 1.33691 8.00013 1.33691C8.90982 1.33691 9.75675 1.80064 10.2468 2.56706C11.1386 2.36655 12.071 2.6368 12.7174 3.28316C13.3637 3.92952 13.634 4.8619 13.4335 5.75372C14.1999 6.24377 14.6636 7.0907 14.6636 8.00039C14.6636 8.91008 14.1999 9.75701 13.4335 10.2471C13.6331 11.1375 13.3636 12.0682 12.719 12.7141C12.0744 13.36 11.1443 13.6315 10.2535 13.4337C9.76402 14.2031 8.91535 14.6691 8.00346 14.6691C7.09157 14.6691 6.24291 14.2031 5.75346 13.4337C4.86304 13.6334 3.93237 13.3638 3.28644 12.7192C2.64051 12.0747 2.36903 11.1446 2.5668 10.2537C1.79438 9.76489 1.32617 8.91449 1.32617 8.00039C1.32617 7.08629 1.79438 6.23589 2.5668 5.74706Z" fill="#154618"/>
<path d="M2.5668 5.74706C2.36903 4.85622 2.64051 3.92611 3.28644 3.28154C3.93237 2.63696 4.86304 2.36743 5.75346 2.56706C6.24351 1.80064 7.09044 1.33691 8.00013 1.33691C8.90982 1.33691 9.75675 1.80064 10.2468 2.56706C11.1386 2.36655 12.071 2.6368 12.7174 3.28316C13.3637 3.92952 13.634 4.8619 13.4335 5.75372C14.1999 6.24377 14.6636 7.0907 14.6636 8.00039C14.6636 8.91008 14.1999 9.75701 13.4335 10.2471C13.6331 11.1375 13.3636 12.0682 12.719 12.7141C12.0744 13.36 11.1443 13.6315 10.2535 13.4337C9.76402 14.2031 8.91535 14.6691 8.00346 14.6691C7.09157 14.6691 6.24291 14.2031 5.75346 13.4337C4.86304 13.6334 3.93237 13.3638 3.28644 12.7192C2.64051 12.0747 2.36903 11.1446 2.5668 10.2537C1.79438 9.76489 1.32617 8.91449 1.32617 8.00039C1.32617 7.08629 1.79438 6.23589 2.5668 5.74706V5.74706" stroke="#AFEC70" stroke-width="1.33333" stroke-linecap="round" stroke-linejoin="round"/>
<path d="M6 8.00033L7.33333 9.33366L10 6.66699L6 8.00033Z" fill="#154618"/>
<path d="M6 8.00033L7.33333 9.33366L10 6.66699L6 8.00033" stroke="#AFEC70" stroke-width="1.33333" stroke-linecap="round" stroke-linejoin="round"/>
</svg>
