<svg width="24" height="24" viewBox="0 0 24 24" fill="none" xmlns="http://www.w3.org/2000/svg">
<path d="M14.7005 6.30001C14.3193 6.68885 14.3193 7.31117 14.7005 7.70001L16.3005 9.30001C16.6893 9.68115 17.3116 9.68115 17.7005 9.30001L20.8065 6.19501C21.1265 5.87301 21.6695 5.97501 21.7895 6.41301C22.4063 8.65628 21.6706 11.0539 19.9019 12.5652C18.1331 14.0766 15.6501 14.4292 13.5305 13.47L5.62047 21.38C4.79259 22.2076 3.44856 22.2074 2.62097 21.3795C1.79337 20.5516 1.79359 19.2076 2.62147 18.38L10.5315 10.47C9.57228 8.35042 9.92488 5.86739 11.4362 4.09862C12.9476 2.32986 15.3452 1.59423 17.5885 2.21101C18.0265 2.33101 18.1285 2.87301 17.8075 3.19501L14.7005 6.30001" stroke="#154618" stroke-width="2" stroke-linecap="round" stroke-linejoin="round"/>
</svg>
