<svg width="16" height="16" viewBox="0 0 16 16" fill="none" xmlns="http://www.w3.org/2000/svg">
<path d="M6.6665 9.77344V10.8574C6.66138 11.3219 6.41488 11.7503 6.01584 11.9881C5.1712 12.6137 4.67111 13.601 4.6665 14.6521" stroke="#154618" stroke-width="1.33333" stroke-linecap="round" stroke-linejoin="round"/>
<path d="M9.3335 9.77344V10.8574C9.33862 11.3219 9.58512 11.7503 9.98416 11.9881C10.8288 12.6137 11.3289 13.601 11.3335 14.6521" stroke="#154618" stroke-width="1.33333" stroke-linecap="round" stroke-linejoin="round"/>
<path d="M12 6.00033H13C13.9199 6.00033 14.6667 5.25352 14.6667 4.33366C14.6667 3.4138 13.9199 2.66699 13 2.66699H12" stroke="#154618" stroke-width="1.33333" stroke-linecap="round" stroke-linejoin="round"/>
<path d="M2.6665 14.667H13.3332" stroke="#154618" stroke-width="1.33333" stroke-linecap="round" stroke-linejoin="round"/>
<path d="M4 5.99967C4 8.20733 5.79234 9.99967 8 9.99967C10.2077 9.99967 12 8.20733 12 5.99967V1.99967C12 1.63173 11.7013 1.33301 11.3333 1.33301H4.66667C4.29872 1.33301 4 1.63173 4 1.99967V5.99967" stroke="#154618" stroke-width="1.33333" stroke-linecap="round" stroke-linejoin="round"/>
<path d="M4.00016 6.00033H3.00016C2.0803 6.00033 1.3335 5.25352 1.3335 4.33366C1.3335 3.4138 2.0803 2.66699 3.00016 2.66699H4.00016" stroke="#154618" stroke-width="1.33333" stroke-linecap="round" stroke-linejoin="round"/>
</svg>
