<svg width="20" height="20" viewBox="0 0 20 20" fill="none" xmlns="http://www.w3.org/2000/svg">
<path d="M1.7181 10.29C1.64865 10.1029 1.64865 9.89709 1.7181 9.70999C3.10146 6.35575 6.37146 4.16718 9.99977 4.16718C13.6281 4.16718 16.8981 6.35575 18.2814 9.70999C18.3509 9.89709 18.3509 10.1029 18.2814 10.29C16.8981 13.6442 13.6281 15.8328 9.99977 15.8328C6.37146 15.8328 3.10146 13.6442 1.7181 10.29" stroke="#154618" stroke-opacity="0.4" stroke-width="1.66667" stroke-linecap="round" stroke-linejoin="round"/>
<path d="M7.5 10C7.5 11.3798 8.62021 12.5 10 12.5C11.3798 12.5 12.5 11.3798 12.5 10C12.5 8.62021 11.3798 7.5 10 7.5C8.62021 7.5 7.5 8.62021 7.5 10V10" stroke="#154618" stroke-opacity="0.4" stroke-width="1.66667" stroke-linecap="round" stroke-linejoin="round"/>
</svg>
