<svg width="16" height="16" viewBox="0 0 16 16" fill="none" xmlns="http://www.w3.org/2000/svg">
<path d="M3.6879 2.90962C2.26979 3.45315 1.33352 4.81465 1.3335 6.33335C1.3335 7.86669 2.3335 9.00002 3.3335 10L7.0055 13.5547C7.26042 13.8401 7.62568 14.0022 8.00836 13.9998C8.39103 13.9974 8.75421 13.8306 9.0055 13.542L12.6668 10C13.6668 9.00002 14.6668 7.86002 14.6668 6.33335C14.6741 4.81103 13.7383 3.44317 12.3167 2.89834C10.8952 2.35351 9.28491 2.74549 8.27283 3.88269C8.20224 3.95817 8.10351 4.00101 8.00016 4.00101C7.89681 4.00101 7.79809 3.95817 7.7275 3.88269C6.71242 2.75305 5.10601 2.36609 3.6879 2.90962Z" fill="#154618" fill-opacity="0.1" stroke="#154618" stroke-opacity="0.1" stroke-linecap="round" stroke-linejoin="round"/>
</svg>
