<svg width="20" height="20" viewBox="0 0 20 20" fill="none" xmlns="http://www.w3.org/2000/svg">
<path d="M8.94409 4.23C12.9334 3.75459 16.7509 5.99468 18.2816 9.70917C18.351 9.89626 18.351 10.1021 18.2816 10.2892C17.9753 11.0317 17.5706 11.7296 17.0783 12.3642" stroke="#154618" stroke-opacity="0.4" stroke-width="1.66667" stroke-linecap="round" stroke-linejoin="round"/>
<path d="M11.7368 11.7983C10.7558 12.7458 9.19657 12.7322 8.23223 11.7679C7.2679 10.8035 7.25435 9.24428 8.20178 8.26334" stroke="#154618" stroke-opacity="0.4" stroke-width="1.66667" stroke-linecap="round" stroke-linejoin="round"/>
<path d="M14.5658 14.5825C12.3291 15.9075 9.6271 16.1954 7.16137 15.3716C4.69564 14.5477 2.7094 12.6934 1.71835 10.29C1.6489 10.1029 1.6489 9.89709 1.71835 9.71C2.45721 7.91821 3.75724 6.41437 5.42335 5.42416" stroke="#154618" stroke-opacity="0.4" stroke-width="1.66667" stroke-linecap="round" stroke-linejoin="round"/>
<path d="M1.66675 1.66667L18.3334 18.3333" stroke="#154618" stroke-opacity="0.4" stroke-width="1.66667" stroke-linecap="round" stroke-linejoin="round"/>
</svg>
