<svg width="24" height="24" viewBox="0 0 24 24" fill="none" xmlns="http://www.w3.org/2000/svg">
<path d="M4 3H9C9.55192 3 10 3.44808 10 4V9C10 9.55192 9.55192 10 9 10H4C3.44808 10 3 9.55192 3 9V4C3 3.44808 3.44808 3 4 3Z" fill="#154618" fill-opacity="0.1"/>
<path d="M4 3H9C9.55192 3 10 3.44808 10 4V9C10 9.55192 9.55192 10 9 10H4C3.44808 10 3 9.55192 3 9V4C3 3.44808 3.44808 3 4 3V3" stroke="#154618" stroke-width="2" stroke-linecap="round" stroke-linejoin="round"/>
<path d="M15 3H20C20.5519 3 21 3.44808 21 4V9C21 9.55192 20.5519 10 20 10H15C14.4481 10 14 9.55192 14 9V4C14 3.44808 14.4481 3 15 3Z" fill="#154618" fill-opacity="0.1"/>
<path d="M15 3H20C20.5519 3 21 3.44808 21 4V9C21 9.55192 20.5519 10 20 10H15C14.4481 10 14 9.55192 14 9V4C14 3.44808 14.4481 3 15 3V3" stroke="#154618" stroke-width="2" stroke-linecap="round" stroke-linejoin="round"/>
<path d="M15 14H20C20.5519 14 21 14.4481 21 15V20C21 20.5519 20.5519 21 20 21H15C14.4481 21 14 20.5519 14 20V15C14 14.4481 14.4481 14 15 14Z" fill="#154618" fill-opacity="0.1"/>
<path d="M15 14H20C20.5519 14 21 14.4481 21 15V20C21 20.5519 20.5519 21 20 21H15C14.4481 21 14 20.5519 14 20V15C14 14.4481 14.4481 14 15 14V14" stroke="#154618" stroke-width="2" stroke-linecap="round" stroke-linejoin="round"/>
<path d="M4 14H9C9.55192 14 10 14.4481 10 15V20C10 20.5519 9.55192 21 9 21H4C3.44808 21 3 20.5519 3 20V15C3 14.4481 3.44808 14 4 14Z" fill="#154618" fill-opacity="0.1"/>
<path d="M4 14H9C9.55192 14 10 14.4481 10 15V20C10 20.5519 9.55192 21 9 21H4C3.44808 21 3 20.5519 3 20V15C3 14.4481 3.44808 14 4 14V14" stroke="#154618" stroke-width="2" stroke-linecap="round" stroke-linejoin="round"/>
</svg>
