<svg width="28" height="28" viewBox="0 0 28 28" fill="none" xmlns="http://www.w3.org/2000/svg">
<path d="M14 8.16666V24.5" stroke="#154618" stroke-opacity="0.6" stroke-width="2.33333" stroke-linecap="round" stroke-linejoin="round"/>
<path d="M3.50016 21C2.85626 21 2.3335 20.4772 2.3335 19.8333V4.66667C2.3335 4.02277 2.85626 3.5 3.50016 3.5H9.3335C11.9091 3.5 14.0002 5.59106 14.0002 8.16667C14.0002 5.59106 16.0912 3.5 18.6668 3.5H24.5002C25.1441 3.5 25.6668 4.02277 25.6668 4.66667V19.8333C25.6668 20.4772 25.1441 21 24.5002 21H17.5002C15.5685 21 14.0002 22.5683 14.0002 24.5C14.0002 22.5683 12.4319 21 10.5002 21H3.50016" stroke="#154618" stroke-opacity="0.6" stroke-width="2.33333" stroke-linecap="round" stroke-linejoin="round"/>
</svg>
