<svg width="24" height="24" viewBox="0 0 24 24" fill="none" xmlns="http://www.w3.org/2000/svg">
<path d="M15.4768 12.8901L16.9918 21.4161C17.0265 21.6217 16.93 21.8273 16.7497 21.9319C16.5694 22.0366 16.343 22.0183 16.1818 21.8861L12.6018 19.1991C12.2468 18.934 11.7597 18.934 11.4048 19.1991L7.81877 21.8851C7.65766 22.0171 7.43165 22.0354 7.25144 21.931C7.07122 21.8267 6.97455 21.6215 7.00877 21.4161L8.52277 12.8901" stroke="#154618" stroke-width="2" stroke-linecap="round" stroke-linejoin="round"/>
<path d="M6 8C6 11.3115 8.68851 14 12 14C15.3115 14 18 11.3115 18 8C18 4.68851 15.3115 2 12 2C8.68851 2 6 4.68851 6 8H6" stroke="#154618" stroke-width="2" stroke-linecap="round" stroke-linejoin="round"/>
</svg>
