<svg width="12" height="12" viewBox="0 0 12 12" fill="none" xmlns="http://www.w3.org/2000/svg">
<path d="M5.76243 1.14745C5.80713 1.05714 5.89917 1 5.99993 1C6.10069 1 6.19273 1.05714 6.23743 1.14745L7.39243 3.48695C7.54688 3.79952 7.84498 4.01631 8.18993 4.06695L10.7729 4.44495C10.8728 4.45941 10.9557 4.52931 10.9869 4.62525C11.0181 4.72119 10.9922 4.82652 10.9199 4.89695L9.05193 6.71595C8.80185 6.95965 8.68762 7.31075 8.74643 7.65495L9.18743 10.2249C9.20506 10.3248 9.16421 10.4259 9.0822 10.4854C9.0002 10.545 8.8914 10.5526 8.80193 10.5049L6.49293 9.29095C6.18409 9.12878 5.81527 9.12878 5.50643 9.29095L3.19793 10.5049C3.1085 10.5523 2.99991 10.5446 2.91808 10.4851C2.83624 10.4255 2.79544 10.3246 2.81293 10.2249L3.25343 7.65545C3.3125 7.31108 3.19824 6.95971 2.94793 6.71595L1.07993 4.89745C1.00709 4.82709 0.980712 4.72137 1.01197 4.62504C1.04323 4.52871 1.12666 4.45863 1.22693 4.44445L3.80943 4.06695C4.15479 4.0167 4.45335 3.79984 4.60793 3.48695L5.76243 1.14745Z" fill="#FFC107"/>
<path d="M5.76243 1.14745C5.80713 1.05714 5.89917 1 5.99993 1C6.10069 1 6.19273 1.05714 6.23743 1.14745L7.39243 3.48695C7.54688 3.79952 7.84498 4.01631 8.18993 4.06695L10.7729 4.44495C10.8728 4.45941 10.9557 4.52931 10.9869 4.62525C11.0181 4.72119 10.9922 4.82652 10.9199 4.89695L9.05193 6.71595C8.80185 6.95965 8.68762 7.31075 8.74643 7.65495L9.18743 10.2249C9.20506 10.3248 9.16421 10.4259 9.0822 10.4854C9.0002 10.545 8.8914 10.5526 8.80193 10.5049L6.49293 9.29095C6.18409 9.12878 5.81527 9.12878 5.50643 9.29095L3.19793 10.5049C3.1085 10.5523 2.99991 10.5446 2.91808 10.4851C2.83624 10.4255 2.79544 10.3246 2.81293 10.2249L3.25343 7.65545C3.3125 7.31108 3.19824 6.95971 2.94793 6.71595L1.07993 4.89745C1.00709 4.82709 0.980712 4.72137 1.01197 4.62504C1.04323 4.52871 1.12666 4.45863 1.22693 4.44445L3.80943 4.06695C4.15479 4.0167 4.45335 3.79984 4.60793 3.48695L5.76243 1.14745" stroke="#FFC107" stroke-linecap="round" stroke-linejoin="round"/>
</svg>
