<svg width="32" height="32" viewBox="0 0 32 32" fill="none" xmlns="http://www.w3.org/2000/svg">
<rect width="32" height="32" rx="16" fill="#AFEC70" fill-opacity="0.2"/>
<path d="M18.6668 22V20.6667C18.6668 19.1949 17.4719 18 16.0002 18H12.0002C10.5284 18 9.3335 19.1949 9.3335 20.6667V22" stroke="#154618" stroke-width="1.33333" stroke-linecap="round" stroke-linejoin="round"/>
<path d="M18.6665 10.085C19.8426 10.3899 20.664 11.4513 20.664 12.6663C20.664 13.8813 19.8426 14.9427 18.6665 15.2476" stroke="#154618" stroke-width="1.33333" stroke-linecap="round" stroke-linejoin="round"/>
<path d="M22.6665 22.0002V20.6669C22.6656 19.4517 21.8432 18.3907 20.6665 18.0869" stroke="#154618" stroke-width="1.33333" stroke-linecap="round" stroke-linejoin="round"/>
<path d="M11.3335 12.6667C11.3335 14.1384 12.5284 15.3333 14.0002 15.3333C15.4719 15.3333 16.6668 14.1384 16.6668 12.6667C16.6668 11.1949 15.4719 10 14.0002 10C12.5284 10 11.3335 11.1949 11.3335 12.6667V12.6667" stroke="#154618" stroke-width="1.33333" stroke-linecap="round" stroke-linejoin="round"/>
</svg>
